/* XPM */
static char *aea052681c3b4082a3fa783b7b423c09IPi1oc2PCRBNklgL[] = {
/* columns rows colors chars-per-pixel */
"50 50 8 1 ",
"  c black",
". c #7D3833",
"X c #AB5130",
"o c #4FA4B8",
"O c #A3A7C2",
"+ c #92E8C0",
"@ c #DFE0E8",
"# c #F5FFE8",
/* pixels */
"+++oooooooooooooooo++++++ooooooooooooo+++oo++++ooo",
"+++oooooooooooooooo++++++ooooooooooooo+++oo++++ooo",
"+++oooooooooooooooo++++++ooooooooooooo+++oo++++ooo",
"ooooooooooooooooooooooooo+++ooo+++++++ooooooooo+++",
"ooooooooooooooooooooooooo+++ooo+++++++ooooooooo+++",
"ooooooooooooooooooooooooo+++ooo+++++++ooooooooo+++",
"ooooooooooooooooooooooooo+++ooo+++++++ooooooooo+++",
"oooooo++++oooooooooooooooooo+++ooooooooooooooooooo",
"oooooo++++oooooooooooooooooo+++ooooooooooooooooooo",
"ooo+++oooo+++++ooooooooooooooooooooooo+++ooooooooo",
"ooo+++oooo+++++ooooooooooooooooooooooo+++ooooooooo",
"ooo+++oooo+++++ooooooooooooooooooooooo+++ooooooooo",
"+++oooooooooooo++++oooooooooooo+++++++ooo++ooooooo",
"+++oooooooooooo++++oooooooooooo+++++++ooo++ooooooo",
"+++oooooooooooo++++oooooooooooo+++      o++ooooooo",
"+++oooooooooooo++++oooooooooooo+++      o++ooooooo",
"oooooooooo++ooooooo++++++ooo+++ooo      ooo+++++++",
"oooooooooo++ooooooo++++++ooo+++   XXXXXX   +++++++",
"oooooooooo++ooooooo++++++ooo+++   XXXXXX   +++++++",
"oooooo++++oo+++ooooooooo       ###OOOO..   ooooooo",
"oooooo++++oo+++ooooooooo       ###OOOO..   ooooooo",
"oooooo++++oo+++ooooooooo       ###OOOO..   ooooooo",
"ooo+++ooooooooo+++++++oo       ###OOOO..   ooooooo",
"ooo+++ooooooooo+++++++  #######@@@@@@@  +ooooooooo",
"ooo+++ooooooooo+++++++  #######@@@@@@@  +ooooooooo",
"+++ooooooooooooooooooo  #######@@@@@@@  o++oooo+++",
"+++oooooooooooooooo   ######@@@@@@    ooo++oooo+++",
"+++oooooooooooooooo   ######@@@@@@    ooo++oooo+++",
"ooooooooooooooooooo   ######@@@@@@    ooooo++++ooo",
"ooooooooooooooo    #####@@@@@@@OOO    ooooo++++ooo",
"ooooooooooooooo    #####@@@@@@@OOO    ooooo++++ooo",
"oooooo++++ooooo    #####@@@@@@@OOO    oooooooooooo",
"oooooo++++ooooo    #####@@@@@@@OOO    oooooooooooo",
"oooooo+++ooo   #######@@@@@@OOO   oooooooooooooooo",
"oooooo+++ooo   #######@@@@@@OOO   oooooooooooooooo",
"ooo+++oooo++oooooooooooooooooooooooooo+++ooooooooo",
"ooo+++oooo++oooooooooooooooooooooooooo+++ooooooooo",
"+++oooooooooooooooooooooooooooooooooooooo++oooo+++",
"+++oooooooooooo+++++++ooo++++++oooooooooo++oooo+++",
"+++oooooooooooo+++++++ooo++++++oooooooooo++oooo+++",
"oooooooooo++oooooooooo+++oooooooooooooooooo++++ooo",
"oooooooooo++oooooooooo+++oooooooooooooooooo++++ooo",
"oooooooooo++oooooooooo+++oooooooooooooooooo++++ooo",
"oooooooooo++oooooooooo+++oooooooooooooooooo++++ooo",
"oooooo++++oo+++ooooooooooooooooooooooooooooooooooo",
"oooooo++++oo+++ooooooooooooooooooooooooooooooooooo",
"oooooo++++oo+++ooooooooooooooooooooooooooooooooooo",
"ooo+++ooooooooo++++oooooooooooooooooooooo++ooooooo",
"ooo+++ooooooooo++++oooooooooooooooooooooo++ooooooo",
"ooo+++ooooooooo++++oooooooooooooooooooooo++ooooooo"
};
