/* XPM */
static char *_c8fd93bde394f4a9e0681b9db6bb7d0pitmxrWqZBBLCiQd[] = {
/* columns rows colors chars-per-pixel */
"50 50 7 1 ",
"  c black",
". c #3B2027",
"X c #3D2936",
"o c #7D3833",
"O c #AB5130",
"+ c #4FA4B8",
"@ c #92E8C0",
/* pixels */
"@@@++++++++++++++++@@@@@@+++++++++++++@@@++@@@@+++",
"@@@++++++++++++++++@@@@@   +++++++++++@@@++@@@@+++",
"@@@++++++++++++++++@@@@@   +++++++++++@@@++@@@@+++",
"++++++++++++++++++++++++   @+++@@@@@@@+++++++++@@@",
"+++++++++++++++++++++   OOO    @@@@@@@+++++++++@@@",
"+++++++++++++++++++++   OOO    @@@@@@@+++++++++@@@",
"+++++++++++++++++++++   OOO    @@@@@@@+++++++++@@@",
"++++++@@@@+++++++++++   OOO    +++++++++++++++++++",
"++++++@@@@+++++++++++   OOO    +++++++++++++++++++",
"+++@@@++++@@@@@++++++   OOO    +++++++@@@+++++++++",
"+++@@@++++@@@@@++++++   OOO    +++++++@@@+++++++++",
"+++@@@++++@@@@@++++++   OOO    +++++++@@@+++++++++",
"@@@++++++++++++@@@@++   OOO    @@@@@@@+++@@+++++++",
"@@@++++++++++++@@    OOOooooooo  @@@@@+++@@+++++++",
"@@@++++++++++++@@    OOOooooooo  @@@@@+++@@+++++++",
"@@@++++++++++++@@    OOOooooooo  @@@@@+++@@+++++++",
"++++++++++@@+++++    OOOooooooo  ++++++++++@@@@@@@",
"++++++++++@@+++++    OOOooooooo  ++++++++++@@@@@@@",
"++++++++++@@+++++    OOOooooooo  ++++++++++@@@@@@@",
"++++++@@@@++@@@++    OOOooooooo  +++++++++++++++++",
"++++++@@@@++@@@  OOOOOOOooooooo..   ++++++++++++++",
"++++++@@@@++@@@  OOOOOOOooooooo..   ++++++++++++++",
"+++@@@+++++++++  OOOOOOOooooooo..   ++@@@+++++++++",
"+++@@@+++++++++  OOOOoooooooooo..   ++@@@+++++++++",
"+++@@@+++++++++  OOOOoooooooooo..   ++@@@+++++++++",
"@@@++++++++++++  OOOOoooooooooo..   @@+++@@++++@@@",
"@@@++++++++++++  OOOOoooooooooo..   @@+++@@++++@@@",
"@@@++++++++++++  OOOOoooooooooo..   @@+++@@++++@@@",
"+++++++++++++++  OOOOoooooooooo..   +++++++@@@@+++",
"++++++++++++   OOOOOOoooooooooo.....    +++@@@@+++",
"++++++++++++   OOOOOOoooooooooo.....    +++@@@@+++",
"++++++@@@@++   OOOOOOoooooooooo.....    ++++++++++",
"++++++@@@@++   OOOOOOoooooo.........    ++++++++++",
"++++++@@@@++   OOOOOOoooooo.........    ++++++++++",
"++++++@@@@++   OOOOOOoooooo.........    ++++++++++",
"+++@@@++++@@   OOOOOOoooooo.........    @+++++++++",
"+++@@@++++@@   OOoooooooooo.........    @+++++++++",
"@@@+++++++++   OOoooooooooo.........    +@@++++@@@",
"@@@+++++++++   OOoooooooooo.........    +@@++++@@@",
"@@@+++++++++   OOoooooooooo.........    +++++++@@@",
"++++++++++++   OOoooooooooo.........    +++@@@@+++",
"++++++++++++   OOoooooooooo.........    +++@@@@+++",
"+++++++++++++++++oooooooooo++++..+++++++++++++@+++",
"+++++++++++++++++oooooooooo++++..+++++++++++++@+++",
"+++++++++++++++++oooooooooo++++..+++++++++++++++++",
"++++++@@@@++++++++++++++++++++++++++++++++++++++++",
"++++++@@@@++++++++++++++++++++++++++++++++++++++++",
"+++@@@+++++++++++++++++++++++++++++++++++@@+++++++",
"+++@@@+++++++++@@XXXXXXX+++++++++++++++++@@+++++++",
"+++@@@+++++++++@@@@++++++++++++++++++++++@@+++++++"
};
