/* XPM */
static char *_c3c63001a3240b5bb5a6c272a32209fxnJepJ4iTMdI4NaY[] = {
/* columns rows colors chars-per-pixel */
"50 50 10 1 ",
"  c #1B1F21",
". c #283540",
"X c #3A3F5E",
"o c #3B7D4F",
"O c #63AB3F",
"+ c #F0B541",
"@ c #4FA4B8",
"# c #FFEE83",
"$ c #92E8C0",
"% c #F5FFE8",
/* pixels */
"$$$@@@@@@@@@@@@@@@@$$$$$$@@@@@@@@@@@@@$$$@@$$$$@@@",
"$$$@@@@@@@@@@@@@@@@$$$$$$@@@@@@@@@@@@@$$$@@$$$$@@@",
"$$$@@@@@@@@@@@@@@@@$$$$$$@@@@@@@@@@@@@$$$@@$$$$@@@",
"@@@@@@@@@@@@@@@@@@@@@@@@@$$$@@@$$$$$$$@@@@@@@@@$$$",
"@@@@@@@@@@@@@@@@@@@@@@@@@$$$@@@$$$$$$$@@@@@@@@@$$$",
"@@@@@@@@@@@@@@@@@@@@@@@@@$$$@@@$$$$$$$@@@@@@@@@$$$",
"@@@@@@@@@@@@@@@@@@@@@@@@@$$$@@@$$$$$$$@@@@@@@@@$$$",
"@@@@@@$$$$@@@@@@@@@@@@@@@@@@$$$@@@@@@@@@@@@@@@@@@@",
"@@@@@@$$$$@@@@@@@@@@@@@@@@@@$$$@@@@@@@@@@@@@@@@@@@",
"@@@$$$@@@@$$$$$@@@@@@@@@@@@@@@@@@@@@@@$$$@@@@@@@@@",
"@@@$$$@@@@$$$$$@@@@@@@@@@@@@@@@@@@@@@@$$$@@@@@@@@@",
"@@@$$$@@@@$$$$$@@@@@@@@@@@@@@@@@@@@@@@$$$@@@@@@@@@",
"$$$@@@@@@@@@@@@$oooooo@@@@@@oooooo$$$$@@@$$@@@@@@@",
"$$$@@@@@@@@@@@@$oooooo@@@@@@oooooo$$$$@@@$$@@@@@@@",
"$$$@@@@@@@@@@@@$oooooo@@@@@@oooooo$$$$@@@$$@@@@@@@",
"$$$@@@@@@@@@@@@$oooooo@@@@@@oooooo$$$$@@@$$@@@@@@@",
"@@@@@@@@@@$$@@@@oooooo$$$@@@oooooo@@@@@@@@@$$$$$$$",
"@@@@@@@@@@$$@@@@%%OOOOooooooOOOO%%@@@@@@@@@$$$$$$$",
"@@@@@@@@@@$$@@@@%%OOOOooooooOOOO%%@@@@@@@@@$$$$$$$",
"@@@@@@$$$$@@$XXX  OOOOOOOOOOOOOO  XXX@@@@@@@@@@@@@",
"@@@@@@$$$$@@$XXX  OOOOOOOOOOOOOO  XXX@@@@@@@@@@@@@",
"@@@@@@$$$$@@$XXX  OOOOOOOOOOOOOO  XXX@@@@@@@@@@@@@",
"@@@$$$@@@$$$$oooOO..............OOooo$$$$@@@@@@@@@",
"@@@$$$@@@$$$$oooOO..............OOooo$$$$@@@@@@@@@",
"@@@$$$@@@$$$$oooOO..............OOooo$$$$@@@@@@@@@",
"$$$@@@@@@$$$$oooOO..............OOooo$$$$$$@@@@$$$",
"$$$@@@$$$$$$$OOO..++++######++++..OOO$$$$$$$@@@$$$",
"$$$@@@$$$$$$$OOO..++++######++++..OOO$$$$$$$@@@$$$",
"@@@@@@@@@$$$$$$$$$$$$$$$$$$$$$$$$$$$$$$$$@@$$$$@@@",
"@@@@@@@@@$$$$$$$$$$$$$$$$$$$$$$$$$$$$$$$$@@$$$$@@@",
"@@@@@@@@@$$$$$$$$$$$$$$$$$$$$$$$$$$$$$$$$@@$$$$@@@",
"@@@@@@$$$$@@@@@@$$$$$$$$$$$$$$$$$$$$$$@@@@@@@@@@@@",
"@@@@@@$$$$@@@@@@$$$$$$$$$$$$$$$$$$$$$$@@@@@@@@@@@@",
"@@@@@@$$$$@@@@@@$$$$$$$$$$$$$$$$$$$$$$@@@@@@@@@@@@",
"@@@@@@$$$$@@@@@@$$$$$$$$$$$$$$$$$$$$$$@@@@@@@@@@@@",
"@@@$$$@@@@$$$$$@$$$$$$$$$$$$$$$$$$@@@@$$$@@@@@@@@@",
"@@@$$$@@@@$$$$$@@@@@@@@@@@@@@@@$$$@@@@$$$@@@@@@@@@",
"$$$@@@@@@@@@@@@$$$$$$$@@@$$$$$$@@@@@@@@@@$$@@@@$$$",
"$$$@@@@@@@@@@@@$$$$$$$@@@$$$$$$@@@@@@@@@@$$@@@@$$$",
"$$$@@@@@@@@@@@@$$$$$$$@@@$$$$$$@@@@@@@@@@$$@@@@$$$",
"@@@@@@@@@@$$@@@@@@@@@@$$$@@@@@@@@@@@@@@@@@@$$$$@@@",
"@@@@@@@@@@$$@@@@@@@@@@$$$@@@@@@@@@@@@@@@@@@$$$$@@@",
"@@@@@@@@@@$$@@@@@@@@@@$$$@@@@@@@@@@@@@@@@@@$$$$@@@",
"@@@@@@@@@@$$@@@@@@@@@@$$$@@@@@@@@@@@@@@@@@@$$$$@@@",
"@@@@@@$$$$@@$$$@@@@@@@@@@@@@@@@@@@@@@@@@@@@@@@@@@@",
"@@@@@@$$$$@@$$$@@@@@@@@@@@@@@@@@@@@@@@@@@@@@@@@@@@",
"@@@@@@$$$$@@$$$@@@@@@@@@@@@@@@@@@@@@@@@@@@@@@@@@@@",
"@@@$$$@@@@@@@@@$$$$@@@@@@@@@@@@@@@@@@@@@@$$@@@@@@@",
"@@@$$$@@@@@@@@@$$$$@@@@@@@@@@@@@@@@@@@@@@$$@@@@@@@",
"@@@$$$@@@@@@@@@$$$$@@@@@@@@@@@@@@@@@@@@@@$$@@@@@@@"
};
