/* XPM */
static char *_c1d676a13214ae3c733c34002054eb8qMFv73i1zIg1imkI[] = {
/* columns rows colors chars-per-pixel */
"50 50 5 1 ",
"  c #3A3F5E",
". c #4C6885",
"X c #4FA4B8",
"o c #92E8C0",
"O c #F5FFE8",
/* pixels */
"oooXXXXXXXXXXXXXXXXooooooXXXXXXXXXXXXXoooXXooooXXX",
"oooXXXXXXXXXXXXXXXXooooooXXXXXXXXXXXXXoooXXooooXXX",
"oooXXXXXXXXXXXXXXXXooooooXXXXXXXXXXXXXoooXXooooXXX",
"XXXXXXXXXXXXXXXXXXXXXXXXXoooXXXoooooooXXXXXXXXXooo",
"XXXXXXXXXXXXXXXXXXXXXXXXXoooXXXoooooooXXXXXXXXXooo",
"XXXXXXXXXXXXXXXXXXXXXXXXXoooXXXOOOOOOOOOXXXXXXXooo",
"XXXXXXXXXXXXXXXXXXXXXXXXXoooXXXOOOOOOOOOXXXXXXXooo",
"XXXXXXooooXXXXXXXXXXXXXXXXXXoooOOOOOOOOOXXXXXXXXXX",
"XXXXXXooooXXXXXXXXXXXXXXXXXXoooXXXXXXXXXOOOOOOOXXX",
"XXXoooXXXXoooooXXXXXXXXXXXXXXXXXXXXXXXooOOOOOOOXXX",
"XXXoooXXXXoooooXXXXXXXXXXXXXXXXXXXXXXXooOOOOOOOXXX",
"XXXoooXXXXoooooXXXXXXXXXXXXXXXXXXXXXXXooOOOOOOOXXX",
"oooXXXXXXoooXXXoOOOOOOOOOOOOXXXoooooooooXooXXXXOOX",
"oooXXXXXXoooXXXoOOOOOOOOOOOOXXXoooooooooXooXXXXOOX",
"oooXXXXXXoooXXXoOOOOOOOOOOOOXXXoooooooooXooXXXXOOX",
"oooXXXXOOoooOOOOoooXXXXXXooooooooooOOOOOOOOOXXXXXX",
"XXXXXXXOOoooOOOOoooXXXXXXooooooooooOOOOOOOOOoooooo",
"XXXOOOOXXoooooooXXXoooooooooXXXXXXX..oooooooOOOooo",
"XXXOOOOXXoooooooXXXoooooooooXXXXXXX..oooooooOOOooo",
"XXXOOOOXXoooooooXXXoooooooooXXXXXXX..oooooooOOOXXX",
"XXXOOOOXXoooooooXXXoooooooooXXXXXXX..oooooooOOOXXX",
"OOOooooXXooooooo......XXXXXX.......XXooooooooooOOX",
"OOOooooXXooooooo......XXXXXX.......XXooooooooooOOX",
"OOOooooXXooooooo......XXXXXX.......XXooooooooooOOX",
"OOOooooooXXX....                   ..XXXoooooooOOX",
"OOOooooooXXX....                   ..XXXoooooooOOo",
"OOOooooooXXX....                   ..XXXoooooooOOo",
"OOOoooooooooXXXX...            ....oooooXXXXoooOOo",
"OOOoooooooooXXXX...            ....oooooXXXXoooOOX",
"OOOoooooooooXXXX...            ....oooooXXXXoooOOX",
"XXXOOOOooooo....XXXXXXoooooooooXXXXoooooXXXXOOOXXX",
"XXXOOOOooooo....XXXXXXoooooooooXXXXoooooXXXXOOOXXX",
"XXXOOOOooooo....XXXXXXoooooooooXXXXoooooXXXXOOOXXX",
"XXXXXXoOOOOOOOOOoooooooooXXXXXXooooOOOOOooooXXXXXX",
"XXXXXXoOOOOOOOOOoooooooooXXXXXXooooOOOOOooooXXXXXX",
"XXXoooXOOOOOOOOOoooooooooXXXXXXooooOOOOOooooXXXXXX",
"OOOoooXXXooooooooooXXXOOOOOOOOOOOOOXXXooooooXXXXXX",
"OOOXXXXXXoooooooooooooOOOOOOOOOOOOOXXXXXooooXXXooo",
"OOOXXXXXXoooooooooooooOOOOOOOOOOOOOXXXXXooooXXXooo",
"OOOXXXXXXoooooooooooooOOOOOOOOOOOOOXXXXXooooXXXooo",
"XXXOOOOOOXooXXXXXXXXXXoooXXXXXXXXXXXXXXXXXXooooXXX",
"XXXOOOOOOXooXXXXXXXXXXoooXXXXXXXXXXXXXXXXXXooooXXX",
"XXXOOOOOOXooXXXXXXXXXXoooXXXXXXXXXXXXXXXXXXooooXXX",
"XXXXXXXXXOOOOOOOOOOXXXoooXXXXXXXXXXXXXXXXXXooooXXX",
"XXXXXXoooOOOOOOOOOOXXXXXXXXXXXXXXXXXXXXXXXXXXXXXXX",
"XXXXXXooooXXoooXXXXXXXXXXXXXXXXXXXXXXXXXXXXXXXXXXX",
"XXXXXXooooXXoooXXXXXXXXXXXXXXXXXXXXXXXXXXXXXXXXXXX",
"XXXoooXXXXXXXXXooooXXXXXXXXXXXXXXXXXXXXXXooXXXXXXX",
"XXXoooXXXXXXXXXooooXXXXXXXXXXXXXXXXXXXXXXooXXXXXXX",
"XXXoooXXXXXXXXXooooXXXXXXXXXXXXXXXXXXXXXXooXXXXXXX"
};
