/* XPM */
static char *_ad9c9df9cb34764c7149967023ea1657MsFSOk9a6gLGGsQ[] = {
/* columns rows colors chars-per-pixel */
"50 50 21 1 ",
"  c #090F20",
". c #0E1322",
"X c #101524",
"o c #181C29",
"O c #1E222E",
"+ c #212530",
"@ c #222530",
"# c #30333C",
"$ c #343741",
"% c #373A44",
"& c #3A3D46",
"* c #3B3E47",
"= c #3C3F48",
"- c #3D4049",
"; c #882E35",
": c #A1252B",
"> c #D70D0F",
", c #E40708",
"< c #F10303",
"1 c #FC0101",
"2 c red",
/* pixels */
"  .oO+++@@@@@@@@@@@@@@@@@@@@@@@@++++++++++++@Oo.  ",
" X+#%&=&===&&====&&====&&====&&==&&====&&====%#@X ",
".+$=--------=-----==----=-----==----------==--=$@.",
"o#=---------=-----------=----------------------=#o",
"O%----------------------------------------------%O",
"+&----------------------------------------------&@",
"+&----------------------------------------------&@",
"+=----------------------------------------------&@",
"+===--------------------------------------------=+",
"+=----------------------------------------------&+",
"@=----------------------------------------------=+",
"@=----------------------------------------------=+",
"@=----------------------------------------------=@",
"@&----------------------------------------------&@",
"@&=---------------------------------------------=@",
"@==------------------:><22<>:-------------------&@",
"+*-----------------;,22222222,;-----------------=@",
"+-----------------:222222222221:----------------&@",
"+*---------------;12222222222221;---------------=@",
"+*---------------,22222222222222,---------------&@",
"+&--------------:2222222222222222:--------------=@",
"+--------------->2222222222222222>--------------&@",
"+*--------------<2222222222222222<--------------=@",
"+*--------------222222222222222222--------------&@",
"+*--------------122222222222222222--------------=@",
"+*--------------<2222222222222222<--------------&@",
"+&-------------->2222222222222222>--------------=@",
"+=--------------:2222222222222222:--------------&@",
"+&---------------,22222222222222,---------------=@",
"+=---------------;12222222222221;---------------&@",
"@=----------------:122222222221:----------------=@",
"@=-----------------;,22222222,;----------------=&@",
"@&=------------------:><22<>:-------------------&@",
"@=----------------------------------------------=@",
"@=----------------------------------------------&@",
"@=----------------------------------------------=@",
"@&----------------------------------------------=@",
"@=----------------------------------------------=+",
"@==---------------------------------------------&+",
"@&=---------------------------------------------=+",
"@=----------------------------------------------&+",
"@=----------------------------------------------&@",
"@&----------------------------------------------&@",
"@=----------------------------------------------&@",
"@&==--------------------------------------------&@",
"O%----------------------------------------------%O",
"o#=----------------------------=----------------#o",
"X+$=---------------------------=---------------$@.",
" X+#%=&&&&=&=&===&=&=&=&=&=&=&=&&&-&=&=&===&=%#@X ",
"  .oO+@@@@@@++@@@@@@@@@@@@@@@@@@++++++++@@@@@Oo.  "
};
