/* XPM */
static char *f4fbe1bd0e2b4248c473101137df69dcXrTq177kEZJJiYp4[] = {
/* columns rows colors chars-per-pixel */
"50 50 14 1 ",
"  c #090F20",
". c #0E1322",
"X c #101524",
"o c #181C29",
"O c #1E222E",
"+ c #212530",
"@ c #222530",
"# c #30333C",
"$ c #343741",
"% c #373A44",
"& c #3A3D46",
"* c #3B3E47",
"= c #3C3F48",
"- c #3D4049",
/* pixels */
"  .oO+++@@@@@@@@@@@@@@@@@@@@@@@@@@@@@@@@@@@@@OoX  ",
" X+#%&=&===&&====&&====&&====&&===&==&==&==&=&#@X ",
".+$=--------=-----==----=-----==----=-----==---#OX",
"o#=---------=-----------=-----------=----------=#o",
"O%----------------------------------------------%O",
"+&----------------------------------------------&@",
"+&----------------------------------------------&@",
"+=----------------------------------------------=@",
"+===--------------------------------------------&@",
"+=----------------------------------------------=O",
"@=----------------------------------------------=@",
"@=----------------------------------------------=@",
"@=----------------------------------------------&@",
"@&----------------------------------------------=@",
"@&=---------------------------------------------&@",
"@==---------------------------------------------=@",
"@=----------------------------------------------=@",
"@=----------------------------------------------&@",
"@=----------------------------------------------=O",
"@&----------------------------------------------=@",
"@&==--------------------------------------------=@",
"@=----------------------------------------------&@",
"@=----------------------------------------------=@",
"@=----------------------------------------------&@",
"@=----------------------------------------------=@",
"@&----------------------------------------------&@",
"@&=---------------------------------------------=@",
"@==---------------------------------------------&@",
"@=----------------------------------------------=@",
"@=----------------------------------------------&@",
"@=----------------------------------------------=@",
"@&---------------------------------------------=&@",
"@&==--------------------------------------------&@",
"@=----------------------------------------------=@",
"@=----------------------------------------------&@",
"@=----------------------------------------------=@",
"@=----------------------------------------------&@",
"@&----------------------------------------------=@",
"@&=---------------------------------------------&@",
"@==---------------------------------------------=@",
"@=----------------------------------------------=@",
"@=----------------------------------------------=@",
"@=----------------------------------------------&O",
"@&----------------------------------------------&@",
"@&==--------------------------------------------&@",
"O%----------------------------------------------%O",
"o#=----------------------------=---------------=#o",
"X+$=---------------------------=---------------#@.",
" X+#%=&&&&=&=&===&=&===========&=======&===&=%#@X ",
"  .oO@@@@@@@++@@@@@@O@@O@@O@@@@@@@@@@@@O@@@@@Oo.  "
};
