/* XPM */
static char *db59dfd124cd4624a708cf0eb56ee32dpL9EoSC70ymP0xe6[] = {
/* columns rows colors chars-per-pixel */
"50 50 2 1 ",
"  c #4FA4B8",
". c #92E8C0",
/* pixels */
"...                ......             ...  ....   ",
"...                ......             ...  ....   ",
"...                ......             ...  ....   ",
"                         ...   .......         ...",
"                         ...   .......         ...",
"                         ...   .......         ...",
"                         ...   .......         ...",
"      ....                  ...                   ",
"      ....                  ...                   ",
"   ...    .....                       ...         ",
"   ...    .....                       ...         ",
"   ...    .....                       ...         ",
"...            ....            .......   ..       ",
"...            ....            .......   ..       ",
"...            ....            .......   ..       ",
"...            ....            .......   ..       ",
"          ..       ......   ...            .......",
"          ..       ......   ...            .......",
"          ..       ......   ...            .......",
"      ....  ...          ...                      ",
"      ....  ...          ...                      ",
"      ....  ...          ...                      ",
"   ...         .......                ...         ",
"   ...         .......                ...         ",
"   ...         .......                ...         ",
"...                   ...      .......   ..    ...",
"...                   ...      .......   ..    ...",
"...                   ...      .......   ..    ...",
"                         ......            ....   ",
"                         ......            ....   ",
"                         ......            ....   ",
"      ....                        ....            ",
"      ....                        ....            ",
"      ....                        ....            ",
"      ....                        ....            ",
"   ...    .....                ...    ...         ",
"   ...    .....                ...    ...         ",
"...            .......   ......          ..    ...",
"...            .......   ......          ..    ...",
"...            .......   ......          ..    ...",
"          ..          ...                  ....   ",
"          ..          ...                  ....   ",
"          ..          ...                  ....   ",
"          ..          ...                  ....   ",
"      ....  ...                                   ",
"      ....  ...                                   ",
"      ....  ...                                   ",
"   ...         ....                      ..       ",
"   ...         ....                      ..       ",
"   ...         ....                      ..       "
};
