/* XPM */
static char *_44fa050eb3a43a19a0a61e42321ff7dAxkuagdgzcUqrVWC[] = {
/* columns rows colors chars-per-pixel */
"50 50 20 1 ",
"  c #090F20",
". c #0E1322",
"X c #101524",
"o c #181C29",
"O c #1E222E",
"+ c #212530",
"@ c #222530",
"# c #30333C",
"$ c #343741",
"% c #373A44",
"& c #3A3D46",
"* c #3B3E47",
"= c #3C3F48",
"- c #3D4049",
"; c #A1A481",
": c #B8C099",
"> c #DEF0D1",
", c #E7F8E1",
"< c #F1FDEF",
"1 c #FCFFFC",
/* pixels */
"  .oO+++@@@@@@@@@@@@@@@@@@@@@@@@@@@@@@@@@@@@@@o.  ",
" X+#%&=&===&&====&&====&&====&&=====%=====&==&#@. ",
".+$=--------=-----==----=-----==----=-----==---#+.",
"o#=---------=-----------=-----------------==---=#o",
"O%----------------------------------------------%o",
"+&-----------------------------------------------+",
"+&-----------------------------------------------@",
"+=----------------------------------------------&@",
"+===---------------------------------------------@",
"+=----------------------------------------------&@",
"@=-----------------------------------------------@",
"@=----------------------------------------------&@",
"@=----------------------------------------------&+",
"@&----------------------------------------------=+",
"@&=---------------------------------------------=@",
"@==------------------:><11<>:-------------------&@",
"@=-----------------;,11111111,;-----------------=@",
"@=----------------:111111111111:----------------&@",
"@=---------------;11111111111111;---------------=@",
"@=---------------,11111111111111,---------------&@",
"@%=-------------:1111111111111111:--------------=@",
"@=-------------->1111111111111111>--------------&@",
"@=--------------<1111111111111111<--------------=@",
"@=--------------111111111111111111--------------&@",
"@=--------------111111111111111111--------------=@",
"@===------------<1111111111111111<--------------&@",
"@===------------>1111111111111111>--------------=@",
"@===------------:1111111111111111:--------------&@",
"@=---------------,11111111111111,---------------=@",
"@=---------------;11111111111111;---------------&@",
"@=----------------:111111111111:---------------==@",
"@=-----------------;,11111111,;----------------=&@",
"@===-----------------:><11<>:-------------------&@",
"@===--------------------------------------------=@",
"@===--------------------------------------------&@",
"@=----------------------------------------------=@",
"@=----------------------------------------------&@",
"@===--------------------------------------------=@",
"@===--------------------------------------------&@",
"@===--------------------------------------------=@",
"@=----------------------------------------------&@",
"@=----------------------------------------------&@",
"@=----------------------------------------------=@",
"@=----------------------------------------------=@",
"@%=---------------------------------------------%@",
"O%----------------------------------------------%O",
"o#=---------------------------==---------------=#o",
"X+$=------------------------====---------------#@.",
" X@#%&&=&=&===============&=&=&=---====&===&%%#@X ",
"  XoO@@@@@++@O@@@O@@O@@O@@@@@@@@@@@@@@@O@@@@@@o.  "
};
