/* XPM */
static char *_ed0384ba9824af389a64fa10b737ab0HqmmrJQnlXPtLXKN[] = {
/* columns rows colors chars-per-pixel */
"50 50 8 1 ",
"  c black",
". c #781D4F",
"X c #E64539",
"o c #AD2F45",
"O c #63AB3F",
"+ c #C8D45D",
"@ c #4FA4B8",
"# c #92E8C0",
/* pixels */
"###@@@@@@@@@@@@@@@@######@@@@@@@@@@@@@###@@####@@@",
"###@@@@@@@@@@@@@@@@######@@@@@@@@@@@@@###@@####@@@",
"###@@@@@@@@@@@@@@@@######@@@@@@@@@@@@@###@@####@@@",
"@@@@@@@@@@@@@@@@@@@@@@@@@###@@@#######@@@@@@@@@###",
"@@@@@@@@@@@@@@@@@@@@@@@@@###@@@#######@@@@@@@@@###",
"@@@@@@@@@@@@@@@@@@@@@@@@@###@@@#######@@@@@@@@@###",
"@@@@@@@@@@@@@@@@@@@@@@@@@###@@@#######@@@@@@@@@###",
"@@@@@@####@@@@@@@@@@@@@@@@@@###@@@@@@@@@@@@@@@@@@@",
"@@@@@@####@@@@@@@@@@@@@@@@@@###@@@@@@@@@@@@@@@@@@@",
"@@@###@@@@#####@@@@@@@@@@@@@@@@@@@@@@@###@@@@@@@@@",
"@@@###@@@@#####@@@@@@      @@@@@@@@@@@###@@@@@@@@@",
"@@@###@@@@#####@@@@@@      @@@@@@@@@@@###@@@@@@@@@",
"###@@@@@@@@@@@@####@@      @@@@#######@@@##@@@@@@@",
"###@@@@@@@@@@@@####@@      @@@@#######@@@##@@@@@@@",
"###@@@@@@@@@@@@###   XXX...   @#######@@@##@@@@@@@",
"###@@@@@@@@@@@@###   XXX...   @#######@@@##@@@@@@@",
"@@@@@@@@@@##@@@@@@   XXX...   #@@@@@@@@@@@@#######",
"@@@@@@@@@@##@@    XXXXXX+++...   @@@@@@@@@@#######",
"@@@@@@@@@@##@@    XXXXXX+++...   @@@@@@@@@@#######",
"@@@@@@####@   XXXXXXXooo+++......    @@@@@@@@@@@@@",
"@@@@@@####@   XXXXXXXooo+++......    @@@@@@@@@@@@@",
"@@@@@@####@   XXXXXXXooo+++......    @@@@@@@@@@@@@",
"@@@###@@@@@   XXXXXXXooo+++......    @###@@@@@@@@@",
"@@@###@@@  XXXXXXXoooooo+++......    @###@@@@@@@@@",
"@@@###@@@  XXXXXXXoooooo+++......    @###@@@@@@@@@",
"###@@@@@@  XXXXXXXoooooo+++......    #@@@##@@@@###",
"###@@    XXXXXoooooooooo+++...   OOOOOOOOO#@@@@###",
"###@@    XXXXXoooooooooo+++...   OOOOOOOOO#@@@@###",
"@@@@@    XXXXXoooooooooo+++...   OOOOOOOOO@####@@@",
"@@OOOOOOOOOOOOOOOO+++++++++++++++++++++OOOOOOO#@@@",
"@@OOOOOOOOOOOOOOOO+++++++++++++++++++++OOOOOOO#@@@",
"@@OOOOOOOOOOOOOOOO+++++++++++++++++++++OOOOOOO@@@@",
"@@OOOOOOOOOOOOOOOO+++++++++++++++++++++OOOOOOO@@@@",
"@@@@@@####@@@@OOOOOOOOOOOOO+++++++++++++++OOOOOO@@",
"@@@@@@####@@@@OOOOOOOOOOOOO+++++++++++++++OOOOOO@@",
"@@@###@@@@#####@@@@@@@@@OOOOOOOOOOOOOOOOOOOOOOOO@@",
"@@@###@@@@#####@@@@@@@@@OOOOOOOOOOOOOOOOOOOOOOOO@@",
"###@@@@@@@@@@@@#######@@OOOOOOOOOOOOOOOOOOOOOOOO##",
"###@@@@@@@@@@@@#######@@@######@@@@@@OOOOO#@@@@###",
"###@@@@@@@@@@@@#######@@@######@@@@@@OOOOO#@@@@###",
"@@@@@@@@@@##@@@@@@@@@@###@@@@@@@@@@@@OOOOO@####@@@",
"@@@@@@@@@@##@@@@@@@@@@###@@@@@@@@@@@@OOOOO@####@@@",
"@@@@@@@@@@##@@@@@@@@@@###@@@@@@@@@@@@@@@@@@####@@@",
"@@@@@@@@@@##@@@@@@@@@@###@@@@@@@@@@@@@@@@@@####@@@",
"@@@@@@####@@###@@@@@@@@@@@@@@@@@@@@@@@@@@@@@@@@@@@",
"@@@@@@####@@###@@@@@@@@@@@@@@@@@@@@@@@@@@@@@@@@@@@",
"@@@@@@####@@###@@@@@@@@@@@@@@@@@@@@@@@@@@@@@@@@@@@",
"@@@###@@@@@@@@@####@@@@@@@@@@@@@@@@@@@@@@##@@@@@@@",
"@@@###@@@@@@@@@####@@@@@@@@@@@@@@@@@@@@@@##@@@@@@@",
"@@@###@@@@@@@@@####@@@@@@@@@@@@@@@@@@@@@@##@@@@@@@"
};
