/* XPM */
static char *d40e309b8a2a461bf7390c2227d54c05KFCP49dmHb1VYVRq[] = {
/* columns rows colors chars-per-pixel */
"50 50 22 1 ",
"  c #090F20",
". c #0E1322",
"X c #101524",
"o c #181C29",
"O c #1E222E",
"+ c #212530",
"@ c #222530",
"# c #30333C",
"$ c #343741",
"% c #373A44",
"& c #3A3D46",
"* c #3B3E47",
"= c #3C3F48",
"- c #3D4049",
"; c #7B812F",
": c #14FF00",
"> c #30FC00",
", c #33FC00",
"< c #64EF00",
"1 c #7CE102",
"2 c #899923",
"3 c #89D106",
/* pixels */
"  .oO+++@@@@@@@@@@@@@@@@@@@@@@@@@@@++++++@@@@Oo.  ",
" X+#%&=&===&&====&&====&&====&&==&&&&-&===&==%#@X ",
".+$=--------=-----==----=-----==----------=---=$@.",
"o#=---------=-----------=----------------------=#o",
"O%----------------------------------------------%O",
"+&----------------------------------------------&@",
"+&----------------------------------------------&@",
"+=----------------------------------------------&@",
"+===--------------------------------------------&+",
"+=----------------------------------------------=+",
"@=----------------------------------------------=+",
"@=----------------------------------------------=+",
"@=----------------------------------------------&@",
"@&----------------------------------------------=@",
"@&=---------------------------------------------&@",
"@==------------------23<,,<32-------------------=@",
"+&-----------------;1::::::::1;-----------------=@",
"+&----------------2,::::::::::,2----------------&@",
"+----------------;,::::::::::::,;---------------=@",
"+&---------------1::::::::::::::1---------------&@",
"+&--------------2::::::::::::::::2--------------=@",
"+=--------------3::::::::::::::::3--------------&@",
"+&--------------<::::::::::::::::<--------------=@",
"+=--------------,::::::::::::::::,--------------&@",
"+=--------------,::::::::::::::::,--------------=@",
"+&--------------<::::::::::::::::<--------------&@",
"+==-------------3::::::::::::::::3--------------=@",
"@=--------------2::::::::::::::::2--------------&@",
"@=---------------1::::::::::::::1---------------=@",
"@=---------------;,::::::::::::,;---------------&@",
"@&----------------2,::::::::::,2----------------=@",
"@=-----------------;1::::::::1;----------------=&@",
"@===-----------------23<,,<32-------------------&@",
"@&----------------------------------------------=@",
"@=----------------------------------------------&@",
"@=----------------------------------------------=@",
"@&----------------------------------------------=@",
"@=----------------------------------------------=+",
"@==---------------------------------------------&+",
"@&=---------------------------------------------=+",
"@=----------------------------------------------&+",
"@=----------------------------------------------&@",
"@&----------------------------------------------&@",
"@=----------------------------------------------&@",
"@&==--------------------------------------------&@",
"O%----------------------------------------------%O",
"o#=----------------------------=---------------=#o",
"X+$=---------------------------=--------------=$@.",
" X+#%=&&&&=&=&===&=&=&=&=&=&=&=&===&=&&====&=%#@X ",
"  .oO+@@@@@@++@@@@@@@@@@@@@@@@@@@@O@@@++++@@@Oo.  "
};
