/* XPM */
static char *c7109f99ad194d6a92da0e023e25cef3EqDIVW7POsbMJTOw[] = {
/* columns rows colors chars-per-pixel */
"50 50 8 1 ",
"  c #291D2B",
". c #AD2F45",
"X c #FF8933",
"o c #FFAE70",
"O c #4C6885",
"+ c #4FA4B8",
"@ c #FFC2A1",
"# c #92E8C0",
/* pixels */
"###++++++++++++++++######+++++++++++++###++####+++",
"###++++++++++++++++######+++++++++++++###++####+++",
"###++++++++++++++++            +++++++###++####+++",
"+++++++++++++++++++            #######+++++++++###",
"+++++++++++++++++++            #######+++++++++###",
"+++++++++++++++    XXXXXXXXXXXX   ####+++++++++###",
"+++++++++++++++    XXXXXXXXXXXX   ####+++++++++###",
"++++++####+++++    XXXXXXXXXXXX   ++++++++++++++++",
"++++++####++   ooooXXXXXXXXXXXXXXX    ++++++++++++",
"+++###++++##   ooooXXXXXXXXXXXXXXX    ###+++++++++",
"+++###++++##   ooooXXXXXXXXXXXXXXX    ###+++++++++",
"+++###++++##   ooooXXXXXXXXXXXXXXX    ###+++++++++",
"###+++++++++       oooooooooooo       +++##+++++++",
"###+++++++++       oooooooooooo       +++##+++++++",
"###+++++++++       oooooooooooo       +++##+++++++",
"###+++++++  oooXXXX            XXXoooo   ##+++++++",
"++++++++++  oooXXXX            XXXoooo   ++#######",
"++++++++++  oooooooXXXXXXXXXXXXooooooo   ++#######",
"++++++++++  oooooooXXXXXXXXXXXXooooooo   ++#######",
"++++++####  oooooooXXXXXXXXXXXXooooooo   +++++++++",
"++++++####  oooooooXXXXXXXXXXXXooooooo   +++++++++",
"++++++    ..                          ...  +++++++",
"+++###    ..                          ...  +++++++",
"+++###    ..                          ...  +++++++",
"+++###++++  ...@@@@...@@@@@@...@@@....   +++++++++",
"###+++++++  ...@@@@...@@@@@@...@@@....   ##++++###",
"###+++++++  ...@@@@...@@@@@@...@@@....   ##++++###",
"###+++    .........@@@@@@@@@@@@..........  ++++###",
"++++++    .........@@@@@@@@@@@@..........  ####+++",
"++++++    .........@@@@@@@@@@@@..........  ####+++",
"++++++++++  ...XXXX............XXX....   ++####+++",
"++++++####  ...XXXX............XXX....   +++++++++",
"++++++####  ...XXXX............XXX....   +++++++++",
"++++++####  oooXXXXXXX@@@@@@XXXXXXoooo   +++++++++",
"++++++####  oooXXXXXXX@@@@@@XXXXXXoooo   +++++++++",
"+++###++++  oooXXXXXXX@@@@@@XXXXXXoooo   +++++++++",
"+++###++++  oooooooXXX......XXXooooooo   +++++++++",
"###+++++++  oooooooXXX......XXXooooooo   ##++++###",
"###+++++++  oooooooXXX......XXXooooooo   ##++++###",
"###++++++###oooooooXXX......XXX######### ##++++###",
"++++++   ###oooooooXXX......XXX#########o  ####+++",
"++++++   ###oooooooXXX......XXX#########o  ####+++",
"++++++   ###oooo###++++++##########oooooo  ####+++",
"++++++   ###oooo###++++++##########oooooo  ####+++",
"++++++#++#######+++#########+++++++OO#######++++++",
"++++++#++#######+++#########+++++++OO#######++++++",
"++++++#++#######+++#########+++++++OO#######++++++",
"+++###+++#######+++#########+++++++OO#######++++++",
"+++####++#######OOOOOO++++++OOOOOOO++##########+++",
"+++####++#######OOOOOO++++++OOOOOOO++##########+++"
};
