/* XPM */
static char *_4bd91266d264126cf558eda771b148eitHDg7RCvbT5LXKF[] = {
/* columns rows colors chars-per-pixel */
"50 50 7 1 ",
"  c #2C354D",
". c #404973",
"X c #686F99",
"o c #4FA4B8",
"O c #A3A7C2",
"+ c #92E8C0",
"@ c #F5FFE8",
/* pixels */
"+++oooooooooooooooo++++++ooooooooooooo+++oo++++ooo",
"+++oooooooooooooooo++++++ooooooooooooo+++oo++++ooo",
"+++oooooooo                ooooooooooo+++oo++++ooo",
"ooooooooooo                +ooo+++++++ooooooooo+++",
"oooooooo   OOOOOOOOOOOOOOOO   o+++++++ooooooooo+++",
"oooooooo   OOOOOOOOOOOOOOOO   o+++++++ooooooooo+++",
"oooooooo   OOOOOOOOOOOOOOOO   o+++++++ooooooooo+++",
"oooooo++   OOOOOOOOOOOOOOOO   +ooooooooooooooooooo",
"oooooo++   XXXXOOOOOOOOOOOO   +ooooooooooooooooooo",
"ooo+++oo   XXXXOOOOOOOOOOOO   oooooooo+++ooooooooo",
"ooo+++oo   XXXXOOOOOOOOOOOO   oooooooo+++ooooooooo",
"ooo+++  XXXXXXXXXXXXXOOOOOO...    oooo+++ooooooooo",
"+++ooo  XXXXXXXXXXXXXOOOOOO...    ++++ooo++ooooooo",
"++++++  XXX....XXXXXXXXX......    ++++ooo++ooooooo",
"++++++  XXX....XXXXXXXXX......    ++++ooo++ooooooo",
"++++++  XXX....XXXXXXXXX......    ++++ooo++ooooooo",
"oo++++  XXX....XXXXXXXXX......    ooooooooo+++++++",
"oo++++  XXX....XXXXXXXXX......    ooooooooo+++++++",
"++@@@@XX@@@.......XXXXXX...         ooooooo+++++++",
"++@@@@XX@@@.......XXXXXX...         oooooooooooooo",
"++@@@@XX@@@.......XXXXXX...         oooooooooooooo",
"oo++++@@@@@XXXX@@@XXXXXX   OOOOOOOOO       ooooooo",
"oo++++@@@@@XXXX@@@XXXXXX   OOOOOOOOO       ooooooo",
"oo++++@@@@@XXXX@@@XXXXXX   OOOOOOOOO       ooooooo",
"ooo++++++++@@@@+++@@@   OOOOOOOOOOOOOOOOOOO   oooo",
"+++ooo+++++@@@@+++@@@   OOOOOOOOOOOOOOOOOOO   o+++",
"+++ooo+++++@@@@+++@@@   OOOOOOOOOOOOOOOOOOO   o+++",
"+++ooooo+++++++ooo   OOOOOOOOOOOOOOOOOOOOOO   o+++",
"oooooooo+++++++ooo   OOOOOOOOOOOOOOOOOOOOOO   +ooo",
"oooooooo+++++++ooo   OOOOOOOOOOOOOOOOOOOOOO   +ooo",
"oooooooooooooooooo   XXXOOOOOOOOOOOOOOO....   +ooo",
"oooooo++++oooooooo   XXXOOOOOOOOOOOOOOO....   oooo",
"oooooo++++oooooooo   XXXOOOOOOOOOOOOOOO....   oooo",
"oooooo++++oooooooo   XXXOOOOOOOOOOOOOOO....   oooo",
"oooooo+++++@@@@   XXXXXXXXXXXXXXXXXXOOO.......oooo",
"ooo+++oo+++@@@@   XXXXXXXXXXXXXXXXXXOOO.......oooo",
"oo++++++@@@    XXXXXXXXX...XXXXXXXXXXXX.......oooo",
"++++++++@@@    XXXXXXXXX...XXXXXXXXXXXX.......o+++",
"++++++++@@@    XXXXXXXXX...XXXXXXXXXXXX.......o+++",
"+++ooooo++++++++++@@@@@@XXXXXX......XXXXXXX...  ++",
"oooooooo++++++++++@@@@@@XXXXXX......XXXXXXX...  oo",
"oooooooo++++++++++@@@@@@XXXXXX......XXXXXXX...  oo",
"oooooooo++++++++++@@@@@@XXXXXX......XXXXXXX...  oo",
"oooooo++++++oooooo++++++@@@...@@@@@@@@@XXXX...  oo",
"oooooo+++++o+++ooo++++++@@@...@@@@@@@@@XXXX...  oo",
"oooooo+++++o+++ooo++++++@@@...@@@@@@@@@XXXX...  oo",
"oooooo++++oo+++++++++ooo+++@@@+++++++++@@@@+++++oo",
"ooo+++ooooooooo++++++ooo+++@@@+++++++++@@@@+++++oo",
"ooo+++ooooooooo++++++ooo+++@@@+++++++++@@@@+++++oo",
"ooo+++ooooooooo++++oooooooo+++ooooooooo++++ooooooo"
};
