/* XPM */
static char *_509c493a2f34bbb89716322f1c05f04Gm782VzEORINxQK2[] = {
/* columns rows colors chars-per-pixel */
"50 50 2 1 ",
"  c #2C2E34",
". c #555B6A",
/* pixels */
"                                                  ",
" ................................................ ",
" ................................................ ",
" ................................................ ",
" ...                                          ... ",
" ... ........................................ ... ",
" ... ........................................ ... ",
" ... ........................................ ... ",
" ... ........................................ ... ",
" ... ........................................ ... ",
" ... ........................................ ... ",
" ... ........................................ ... ",
" ... ........................................ ... ",
" ... ........................................ ... ",
" ... ........................................ ... ",
" ... ........................................ ... ",
" ... ........................................ ... ",
" ... ........................................ ... ",
" ... ........................................ ... ",
" ... ........................................ ... ",
" ... ........................................ ... ",
" ... ........................................ ... ",
" ... ........................................ ... ",
" ... ........................................ ... ",
" ... ........................................ ... ",
" ... ........................................ ... ",
" ... ........................................ ... ",
" ... ........................................ ... ",
" ... ........................................ ... ",
" ... ........................................ ... ",
" ... ........................................ ... ",
" ... ........................................ ... ",
" ... ........................................ ... ",
" ... ........................................ ... ",
" ... ........................................ ... ",
" ... ........................................ ... ",
" ... ........................................ ... ",
" ... ........................................ ... ",
" ... ........................................ ... ",
" ... ........................................ ... ",
" ... ........................................ ... ",
" ... ........................................ ... ",
" ... ........................................ ... ",
" ... ........................................ ... ",
" ... ........................................ ... ",
" ...                                          ... ",
" ................................................ ",
" ................................................ ",
" ................................................ ",
"                                                  "
};
