/* XPM */
static char *result[] = {
/* columns rows colors chars-per-pixel */
"50 50 39 1 ",
"  c #30160D",
". c #35170E",
"X c #241710",
"o c #301E15",
"O c #3D1B10",
"+ c #3F1D11",
"@ c #34230D",
"# c #3B280F",
"$ c #342014",
"% c #252626",
"& c #461F12",
"* c #452F0B",
"= c #5B3E0E",
"- c #412117",
"; c #442E11",
": c #452A1B",
"> c #502415",
", c #562C1E",
"< c #4B3213",
"1 c #4E3514",
"2 c #573E14",
"3 c #52382A",
"4 c #633223",
"5 c #63392C",
"6 c #624219",
"7 c #72521B",
"8 c #78581F",
"9 c #724233",
"0 c #855C17",
"q c #815D20",
"w c #8D6F39",
"e c #A97A2A",
"r c #BA924B",
"t c #CF9C46",
"y c #64878C",
"u c #DAC080",
"i c #A8DCF0",
"p c #D8E9F0",
"a c white",
/* pixels */
"a%%%%%%%%%%%%%%%%%%%%%%%%%%%%%%%%%%%%%%%%%%%%%%%%a",
"a%%%%%%%%%%%%%%%%%%%%%%%%%%%%%%%%%%%%%%%%%%%%%%%%a",
"a%%%%%%%%%%%%%%%%%%%%%%%%%%%%%%%%%%%%%%%%%%%%%%%%a",
"a%%%%%%%%%%%%%%%%%%%%%%%%%%%%%%%%%%%%%%%%%%%%%%%%a",
"a%%%%%%%%%%%%%%%%%%%%%%%%%%%%%%%%%%%%%%%%%%%%%%%%a",
"a%%%%%%%%%%%%%%%%%%%%%%%4,%%%%%%%%%%%%%%%%%%%%%%%a",
"a%%%%%%%%%%%%%%%%%%%%%%>4,,%%%%%%%%%%%%%%%%%%%%%%a",
"a%%%%%%%%%%%%%%%%%%%%%94>,&54%%%%%%%%%%%%%%%%%%%%a",
"a%%%%%%%%%%%%%%%%%%%%44>4,,&,%%%%%%%%%%%%%%%%%%%%a",
"a%%%%%%%%%%%%%%%%%%%99994,55,5>%%%%%%%%%%%%%%%%%%a",
"a%%%%%%%%%%%%%%%%%449>94>,&5&,5&%%%%%%%%%%%%%%%%%a",
"a%%%%%%%%%%%%%%%%%44>44>4,,&,&,&&%%%%%%%%%%%%%%%%a",
"a%%%%%%%%%%%%%%%>4>49>94>,&5&,5&,,%%%%%%%%%%%%%%%a",
"a%%%%%%%%%%%%%%>>>44>44>4,,&,&,&&,,%%%%%%%%%%%%%%a",
"a%%%%%%%%%%%%%99>94>99994,55,5&&5&55&%%%%%%%%%%%%a",
"a%%%%%%%%%%%%494>4>49>94>,&5&,5&,,&55,%%%%%%%%%%%a",
"a%%%%%%%%%%%444>>>44>44>4,,&,&,&&,,&,,%%%%%%%%%%%a",
"a%%%%%%%%%49>494>4>49>94>*&5&,5&,,&55&5&%%%%%%%%%a",
"a%%%%%%%%%44444>>>44>44>2*2&,&,&&,,&,,,&&%%%%%%%%a",
"a%%%%%%%994>9>99>94>992*2*2*,5&&5&55&,5&55%%%%%%%a",
"a%%%%%%>99>94>94>9>>942*2*2*.55&,&,55&5&,5,%%%%%%a",
"a%%%%%%>4>44444>>>44>22*232**.-&&,,&,,,&&&,%%%%%%a",
"a%%%%49>99>94>94>9>O@2urooor=2*.-&,55&5&,5&55%%%%a",
"a%%%%4>>4>44444>>>@*@2w<q6eo37=2.,,&,,,&&&,&,%%%%a",
"a%%%%>9>994>9>99>*@2@2X6e6e6r777=.55&,5&55&5&%%%%a",
"a%%%%>9>99>94>94>*@2@$o6e6e6r@77= -55&5&,5&55%%%%a",
"a%%%%4>>4>44444>*2@2;:q6e6e6r*==7=@.,,,&&&,&,%%%%a",
"a%%%%>9>994>9>*222@7;:e6e6e6r27777;2 ,5&55&5&%%%%a",
"a%%%%4>>4>44*2*227;7;788888882777=;7;2,&&&,&,%%%%a",
"a%%%%>9>994>*2*2;7;=;7**2*2**7=777;7;72&55&5&%%%%a",
"a%%%%49>99>**2*277;=;7==7=7==7=777;;;72.,5&55%%%%a",
"a%%%%4>>4>2**2*77=;7;77=7=7==777=7;7;=7*..,&,%%%%a",
"a%%%%>9>%@2*@;===7;7;77=7====7777=;7;7==2#&5&%%%%a",
"a%%%%4>%%@2*===77uuuu37=7=7==7773uu3;77=2#%+,%%%%a",
"a%%%%>%%%@**=7=3r6666ou=7=7;=73rr11rr37=2#%%+%%%%a",
"a%%%%%%%%@2*=7=roeeee6r37=7==7rrp1ipor7=*#%%%%%%%a",
"a%%%%%%%%@2*=73reeeee6ou7=7==3rpp1ippr7=2#%%%%%%%a",
"a%%%%%%%%@2*=7r6eeeee66r3=7==r1pp1ipp17=2#%%%%%%%a",
"a%%%%%%%%@2=;:r6eeeee66u8*===r11111111:=2#%%%%%%%a",
"a%%%%%%%%@2==:r6eeee0t6u8@;==riii1iiip:=2#%%%%%%%a",
"a%%%%%%%%@2==:r6eeeee66u8*7==riii1iiip:=2#%%%%%%%a",
"a%%%%%%%%@**=:r6eeeeey6u8*7;=riii1iiip:=2#%%%%%%%a",
"a%%%%%%%%@2*=:r6eeeee66u8*7==uuuuuuuuu:=*#%%%%%%%a",
"a%%%%%%%%@2*=:r6eeeee66u8*7==722*2@2@*2=2#%%%%%%%a",
"a%%%%%%%%@2*=:r6eeeee66u8*7===77==;7;;7=2#%%%%%%%a",
"a%%%%%%%%@2*;:8::::::::r8*===7777=;7;7==2#%%%%%%%a",
"a%%%%%%%%%%%%%%%%%%%%%%%%%%%%%%%%%%%%%%%%%%%%%%%%a",
"a%%%%%%%%%%%%%%%%%%%%%%%%%%%%%%%%%%%%%%%%%%%%%%%%a",
"a%%%%%%%%%%%%%%%%%%%%%%%%%%%%%%%%%%%%%%%%%%%%%%%%a",
"a%%%%%%%%%%%%%%%%%%%%%%%%%%%%%%%%%%%%%%%%%%%%%%%%a"
};
