/* XPM */
static char *result[] = {
/* columns rows colors chars-per-pixel */
"50 50 5 1 ",
"  c #252626",
". c #5B3715",
"X c #553730",
"o c #DF0024",
"O c white",
/* pixels */
"O                                                O",
"O                                                O",
"O                                                O",
"O                                                O",
"O                                                O",
"O                                                O",
"O                                                O",
"O                                                O",
"O                                                O",
"O                                                O",
"O                                                O",
"O                                                O",
"O                                                O",
"O                                                O",
"O                                                O",
"O                    XXX                         O",
"O                    XXX                         O",
"O                    XXX                         O",
"O                    ......                      O",
"O                    ......                      O",
"O                    ......                      O",
"O                    ...   ...                   O",
"O                    ...   ...                   O",
"O                    ...   ...                   O",
"O                    ...ooooooOOO                O",
"O                    ...ooooooOOO                O",
"O                    ...ooooooOOO                O",
"O                 ooooooOOOoooooo                O",
"O                 ooooooOOOoooooo                O",
"O                 ooooooOOOoooooo                O",
"O                 ooooooooooooooo                O",
"O                 ooooooooooooooo                O",
"O                 ooooooooooooooo                O",
"O                 ooooooooo                      O",
"O                 ooooooooo                      O",
"O                 ooooooooo                      O",
"O                                                O",
"O                                                O",
"O                                                O",
"O                                                O",
"O                                                O",
"O                                                O",
"O                                                O",
"O                                                O",
"O                                                O",
"O                                                O",
"O                                                O",
"O                                                O",
"O                                                O",
"O                                                O"
};
