/* XPM */
static char *result[] = {
/* columns rows colors chars-per-pixel */
"50 50 176 2 ",
"   c black",
".  c #0E0E0D",
"X  c #00001F",
"o  c #1B1B1B",
"O  c gray11",
"+  c #000021",
"@  c #000024",
"#  c #000025",
"$  c #000E26",
"%  c #001525",
"&  c #242524",
"*  c #252625",
"=  c #252626",
"-  c #262727",
";  c #272727",
":  c #2D3033",
">  c #323232",
",  c #3E3E3E",
"<  c #5C523F",
"1  c #464543",
"2  c #444444",
"3  c #454444",
"4  c #444544",
"5  c #444445",
"6  c #454445",
"7  c #484747",
"8  c #494848",
"9  c #484948",
"0  c #484849",
"q  c #494849",
"w  c #494949",
"e  c #4A4949",
"r  c #494A49",
"t  c #49494A",
"y  c #4A494A",
"u  c #4C4B48",
"i  c #4C4C4C",
"p  c #4D4C4C",
"a  c #4C4D4C",
"s  c #4D4D4C",
"d  c #4C4C4D",
"f  c #4D4C4D",
"g  c #4D4E4D",
"h  c #4D4D4E",
"j  c #524C42",
"k  c #514F49",
"l  c #524E49",
"z  c #524F4A",
"x  c gray32",
"c  c #535252",
"v  c #525352",
"b  c #525253",
"n  c #535353",
"m  c #545353",
"M  c #535453",
"N  c #535354",
"B  c #545354",
"V  c gray33",
"C  c #555454",
"Z  c #545554",
"A  c #545455",
"S  c #555455",
"D  c #555555",
"F  c #565555",
"G  c #555655",
"H  c #555556",
"J  c #9E6C00",
"K  c #95660B",
"L  c #98680B",
"P  c #8A641E",
"I  c #B27A00",
"U  c #BA7F00",
"Y  c #A77918",
"T  c #B77E14",
"R  c #BF8000",
"E  c #C08200",
"W  c #C08300",
"Q  c #C58500",
"!  c #C78800",
"~  c #CC8B00",
"^  c #D08D00",
"/  c #DB9802",
"(  c #C79E19",
")  c #FF9B06",
"_  c #FF9D05",
"`  c #EDA007",
"'  c #EDA307",
"]  c #EEA307",
"[  c #EEA407",
"{  c #FFA607",
"}  c #F7AA07",
"|  c #F8AB07",
" . c #FFA608",
".. c #FFA808",
"X. c #FFA908",
"o. c #FEB107",
"O. c #F5B109",
"+. c #FFB408",
"@. c #FFB608",
"#. c #F5B909",
"$. c #F4BA09",
"%. c #F5BA09",
"&. c #F5BA0A",
"*. c #FFB808",
"=. c #FEB909",
"-. c #FFB909",
";. c #FFBA09",
":. c #FFBB09",
">. c #FFB90B",
",. c #FFBA0A",
"<. c #FFBE09",
"1. c #FFBC0A",
"2. c #FFBD0A",
"3. c #FFBE0A",
"4. c #FFBF0A",
"5. c #EFBF11",
"6. c #FFC00A",
"7. c #FFC10B",
"8. c #FFC70A",
"9. c #FFC70B",
"0. c #FFC80B",
"q. c #FFC90B",
"w. c #FFCD0B",
"e. c #FFCE0B",
"r. c #FFCF0B",
"t. c #FFCC0C",
"y. c #FFCD0C",
"u. c #FFCE0C",
"i. c #FFCF0C",
"p. c #FFD100",
"a. c #FFD300",
"s. c #FFD500",
"d. c #FFD600",
"f. c gold",
"g. c #FFD900",
"h. c #FFDA00",
"j. c #FFDC00",
"k. c #FFD00B",
"l. c #FFD10B",
"z. c #FFD50B",
"x. c #FFD00C",
"c. c #FFD10C",
"v. c #FFD20C",
"b. c #FFD30C",
"n. c #FFD30D",
"m. c #FFD40C",
"M. c #FFD50C",
"N. c #FFD40D",
"B. c #FFD50D",
"V. c #FFD60C",
"C. c #FFD70C",
"Z. c #FFD60D",
"A. c #FFD70D",
"S. c #FFD80C",
"D. c #FFD90C",
"F. c #FFD80D",
"G. c #FFD90D",
"H. c #FFDA0D",
"J. c #FFDB0D",
"K. c #FFD90F",
"L. c #FFDB0E",
"P. c #FFDC0D",
"I. c #FFDD0D",
"U. c #FFDE0D",
"Y. c #FFDF0D",
"T. c #FFDC0E",
"R. c #FFDD0E",
"E. c #FFDC0F",
"W. c #FFDE0E",
"Q. c #E18A70",
"!. c #E2AB79",
"~. c #CECBC5",
"^. c #D4D2CD",
"/. c #D5D3CD",
"(. c #D6D4CD",
"). c white",
/* pixels */
").= = = = = = = = = = = = = = = = = = = = = = = = = = = = = = = = = = = = = = = = = = = = = = = = ).",
").= = = = = = = = = = = = = = = = = = = = = = = = = = = = = = = = = = = = = = = = = = = = = = = = ).",
").= = = = = = = = = = = = = = = = = = = = = = = = = = = = = = = = = = = = = = = = = = = = = = = = ).",
").= = = = = = = = = = = = = J.R.Y.z.z.= = = = = = = = = = = = x.x.v.V.G.= = = = = = = = = = = = = ).",
").= = = = = = = = = = = = = G.J.I.Y.Y.) U.j.j.h.g.f.s.a.p.c.@.w.w.x.N.A.= = = = = = = = = = = = = ).",
").= = = = = = = = = = = = = G.L.P.W.W._ I.I.P.J.D.K.V.M.b.x.;.u.u.c.M.A.= = = = = = = = = = = = = ).",
").= = = = = = = = = = = = = G.H.P.I.I.X.I.P.P.J.D.F.V.m.b.l.-.r.r.v.B.A.= = = = = = = = = = = = = ).",
").= = = = = = = = = = = = = G.J.P.I.I...R.T.J.H.F.F.A.B.v.c.2.x.x.v.B.C.= = = = = = = = = = = = = ).",
").= = = = = = = = = = = = = F.H.H.P.P.{ T.J.H.G.F.C.Z.m.b.c.1.x.x.v.M.C.= = = = = = = = = = = = = ).",
").= = = = = = = = = = = = = F.G.H.H.H. .J.G.F.F.Z.Z.B.n.c.x.=.x.x.v.N.V.= = = = = = = = = = = = = ).",
").= = = = = = = = = = = = = Z.M.B.F.F.4.F.V.B.b.v.b.v.k.i.u.3.u.u.r.v.M.= = = = = = = = = = = = = ).",
").= = = = = = = = = = = = = Z.M.B.F.F.4.F.V.B.b.v.b.v.k.i.u.3.u.u.r.v.M.= = = = = = = = = = = = = ).",
").= = = = = = = = = = = = = @ : , t t g h g s f z k l u 7 < j 1 1 , > P = = = = = = = = = = = = = ).",
").= = = = = = = = = = = = = @ b v b b b x b x c x x x x x c x c c x v @ = = = = = = = = = = = = = ).",
").= = = = = = = = = = = = = # N B N N M n M m B m M n M m B m B B M M @ = = = = = = = = = = = = = ).",
").= = = = = = = = = = = = = # Z V Z Z C A C V Z V C A C V Z V Z Z V S # = = = = = = = = = = = = = ).",
").= = = = = = = = = = ; o O % G D G G D H D D D D D H D D D D D D D F $ & * - = = = = = = = = = = ).",
").= = = = = = = = = = = = = ( a i i i i d p i a i p d p i a i a a i f 5.= = = = = = = = = = = = = ).",
").= = = = = = = = = = = = = b.b.b.b.b.n.n.n.b.b.b.n.n.n.b.b.b.b.b.b.n.b.= = = = = = = = = = = = = ).",
").= = = = = = = = = = = = = M.N.M.N.N.N.m.N.M.m.M.N.m.N.M.m.M.m.m.m.M.m.= = = = = = = = = = = = = ).",
").= = = = = = = = = = = = = A.A.A.A.A.F.A.F.C.A.C.F.A.F.C.A.C.A.A.S.A.C.= = = = = = = = = = = = = ).",
").= = = = = = = = = = = = = D.G.D.G.G.F.F.F.G.F.G.F.F.F.G.G.G.G.G.F.G.F.= = = = = = = = = = = = = ).",
").= = = = = = = = = = = = = G.G.G.G.G.G.G.G.F.F.F.G.F.G.G.G.G.G.G.G.G.G.= = = = = = = = = = = = = ).",
").= = = = = = = = = = = = = G.G.G.G.G.F.G.F.F.F.A.C.A.F.F.G.F.G.G.D.G.D.= = = = = = = = = = = = = ).",
").= = = = = = = = = = = = = G.G.G.G.G.F.F.A.C.m.c.c.c.A.F.F.G.G.G.G.G.G.= = = = = = = = = = = = = ).",
").= = = = = = = = = = = = = F.G.F.G.G.F.F.V.` f.d.E.E.8.B.F.F.G.G.D.F.D.= = = = = = = = = = = = = ).",
").= = = = = = = = = = = = = F.F.F.F.F.F.A.[ ' .   ).).7.m.F.F.F.F.F.F.F.= = = = = = = = = = = = = ).",
").= = = = = = = = = = = = = F.F.F.F.F.F.A.[ ' .   ).).7.m.F.F.F.F.F.F.F.= = = = = = = = = = = = = ).",
").= = = = = = = = = = = = = C.A.C.A.A.C.C.[ [ &.$.%.#.w.V.A.S.A.A.A.F.A.= = = = = = = = = = = = = ).",
").= = = = = = = = = = = = = V.V.C.C.C.Z.V.Z.V.b.l.c.v.B.C.C.C.C.C.Z.Z.Z.= = = = = = = = = = = = = ).",
").= = = = = = = = = = = = = M.B.M.Z.Z.V.V.V.V.Z.M.M.M.V.V.Z.V.Z.Z.B.V.B.= = = = = = = = = = = = = ).",
").= = = = = = = = = = = = = m.M.m.M.M.M.Z.M.B.B.B.M.B.M.B.B.B.B.B.M.m.m.= = = = = = = = = = = = = ).",
").= = = = = = = = = = = = = x.c.c.c.c.c.c.c.c.c.c.c.c.c.c.c.c.c.c.x.x.x.= = = = = = = = = = = = = ).",
").= = = = = = = = = = = = = 9.q.0.q.q.q.q.q.0.0.0.q.q.q.0.0.0.0.0.q.0.0.= = = = = = = = = = = = = ).",
").= = = = = = = = = = = = = 3.3.3.3.3.3.3.3.3.3.3.3.3.3.3.3.3.3.3.<.3.<.= = = = = = = = = = = = = ).",
").= = = = = = = = = = = = = Y r r w w y e y r r r y e y r r r r r y t + = = = = = = = = = = = = = ).",
").= = = = = = = = = = = = = o.0 8 0 0 9 8 9 9 q 9 9 8 9 9 q 9 q q 0 9 X = = = = = = = = = = = = = ).",
").= = = = = = = = = = = = = } 2 4 2 2 6 3 6 4 4 4 6 3 6 4 4 4 4 4 6 5 T = = = = = = = = = = = = = ).",
").= = = = = = = = = = = = = b.x.e.i.i.4.e.x.r.i.e.x.w.x.k.t.8.i.i.u.i.v.= = = = = = = = = = = = = ).",
").= = = = = = = = = = = = = Z.M.b.b.b.6.i.k.x.c.x.c.c.c.i.x.O.N.N.m.m.V.= = = = = = = = = = = = = ).",
").= = = = = = = = = = = = = F.C.V.V.V.1.i.x.x.c.x.x.c.x.x.i.] V.V.V.Z.C.= = = = = = = = = = = = = ).",
").= = = = = = = = = = = = = A.F.A.C.C.*.u.r.i.i.i.r.x.r.i.y.[ A.A.C.C.S.= = = = = = = = = = = = = ).",
").= = = = = = = = = = = = = F.F.F.F.F.| ,./ >.(.^././.~.+.:.[ F.F.C.F.S.= = = = = = = = = = = = = ).",
").= = = = = = = = = = = = = F.F.F.F.F.| ,./ >.(.^././.~.+.:.[ F.F.C.F.S.= = = = = = = = = = = = = ).",
").= = = = = = = = = = = = = [ !.[ [ [ R ^ ~ ! Q W E U I J L K [ [ [ Q.[ = = = = = = = = = = = = = ).",
").= = = = = = = = = = = = = = = = = = = = = = = = = = = = = = = = = = = = = = = = = = = = = = = = ).",
").= = = = = = = = = = = = = = = = = = = = = = = = = = = = = = = = = = = = = = = = = = = = = = = = ).",
").= = = = = = = = = = = = = = = = = = = = = = = = = = = = = = = = = = = = = = = = = = = = = = = = ).",
").= = = = = = = = = = = = = = = = = = = = = = = = = = = = = = = = = = = = = = = = = = = = = = = = ).",
").= = = = = = = = = = = = = = = = = = = = = = = = = = = = = = = = = = = = = = = = = = = = = = = = )."
};
