/* XPM */
static char *result[] = {
/* columns rows colors chars-per-pixel */
"50 50 9 1 ",
"  c gray9",
". c #252626",
"X c #B4202A",
"o c #AE8C12",
"O c #FFD541",
"+ c #A9A68D",
"@ c #D6D3BC",
"# c #F5F3E2",
"$ c white",
/* pixels */
"$................................................$",
"$................................................$",
"$................................................$",
"$................................................$",
"$................................................$",
"$............................  ..................$",
"$............................  ..................$",
"$........................... XX  ................$",
"$........................... X ..................$",
"$........................... X ..................$",
"$.........................  ###  ................$",
"$........................ #######  ..............$",
"$.....................   ##########  ............$",
"$.................... ############### ...........$",
"$.................... ############### ...........$",
"$.................... #######  ###### ...........$",
"$.................... #######  ###### ...........$",
"$.................... #######  ###### ...........$",
"$.................... #######  ###### ...........$",
"$..........      .... #############OOO ..........$",
"$......... ++++++  .. #############OOOO .........$",
"$.......  +++++++++   #############XXX ..........$",
"$...... ###########################XX ...........$",
"$...... ###########################XX ...........$",
"$...... ############################# ...........$",
"$...... ###########@@@@@@@########### ...........$",
"$...... ###########@@@@@@@########### ...........$",
"$...... ###########@@@@@@@########### ...........$",
"$...... ###@@@@@@@@@@@@@@@@@######### ...........$",
"$...... ++@@@@@@@@@@@@@@@@@@#######++ ...........$",
"$.......  @@@@@@@@@@@@@@@@@@#####++  ............$",
"$.......  @@@@@@@@@@@@@@@@++###++  ..............$",
"$.......  @@@@@@@@@@@@@@@@++###++  ..............$",
"$......... @@@@@@@@@@@@@@+####+  ................$",
"$..........    ++++++++++####+ ..................$",
"$..........    ++++++++++####+ ..................$",
"$..........    ++++++++++####+ ..................$",
"$.............. +###########+ ...................$",
"$............... +++++++++++ ....................$",
"$...............             ....................$",
"$.............. O  .......  o ...................$",
"$.............. O  .......  o ...................$",
"$.............. OOO ......  oo ..................$",
"$...............   .........  ...................$",
"$................................................$",
"$................................................$",
"$................................................$",
"$................................................$",
"$................................................$",
"$................................................$"
};
